<svg width="288" height="200" viewBox="0 0 288 200" fill="none" xmlns="http://www.w3.org/2000/svg">
<g clip-path="url(#clip0)">
<path d="M28.7611 34.0187C36.5237 34.0187 42.8166 27.7259 42.8166 19.9632C42.8166 12.2006 36.5237 5.90771 28.7611 5.90771C20.9984 5.90771 14.7056 12.2006 14.7056 19.9632C14.7056 27.7259 20.9984 34.0187 28.7611 34.0187Z" fill="#6FCF97"/>
<path d="M27.0438 48.5757C32.9453 61.9056 25.4172 77.2551 16.5558 88.8134C13.5899 92.6893 10.3156 96.7526 9.90445 101.614C9.40862 107.561 13.4357 113.027 18.2126 116.601C26.9258 123.113 38.8257 125.127 49.1958 121.84C58.157 119.001 65.6911 112.589 74.7309 110.004C89.8476 105.675 105.871 112.852 118.817 121.795C127.981 128.117 137.795 135.82 148.842 134.466C156.615 133.513 163.212 128.056 167.69 121.632C169.851 118.53 171.732 115.053 174.879 112.961C176.751 111.715 178.948 111.056 181.146 110.584C201.218 106.294 222.521 116.764 242.327 111.38C255.705 107.752 266.371 97.1699 273.005 84.9949C279.638 72.8199 282.734 59.0728 285.313 45.4526C287.145 35.7779 288.665 25.3262 284.454 16.4286C279.998 7.00782 269.682 1.29673 259.315 0.22647C248.948 -0.843792 238.551 2.11001 229 6.27617C217.067 11.4945 205.369 18.7988 192.345 18.823C183.474 18.8412 175.015 15.4369 166.535 12.8398C152.355 8.50135 137.61 6.34571 122.917 4.35635C108.849 2.45165 94.6426 0.679972 80.4904 1.80465C70.4771 2.59979 61.6338 6.42734 51.9168 8.19902C45.5829 9.35394 39.2188 8.50135 33.0028 10.4363C25.3477 12.8308 17.4749 18.3786 17.0516 27.1161C16.6525 35.4333 23.9146 41.5041 27.0438 48.5757Z" fill="#17298B"/>
<path d="M181.975 60.4459C180.684 57.0809 177.355 49.1719 175.163 50.741C172.394 52.7243 177.933 61.4859 177.933 61.4859C178.09 63.0943 174.976 66.4412 173.307 68.1101C173.307 67.977 173.307 67.9014 173.307 67.9014C173.291 67.9649 173.267 68.0259 173.234 68.0828L173.095 68.0073C173.058 68.1406 172.991 68.2637 172.899 68.367C172.899 68.1403 172.884 68.0073 172.884 68.0073C172.563 69.3647 166.97 71.085 166.97 71.085C166.97 71.085 166.819 71.085 166.559 71.085C165.005 71.085 160.96 70.7343 159.085 67.7352C158.116 66.1104 156.875 64.6635 155.418 63.4571C154.919 63.0661 154.312 62.8362 153.679 62.798C148.5 62.4655 144.307 59.8442 143.47 59.2849L143.315 59.1791L143.282 59.2759C143.086 58.9947 142.895 58.6954 142.717 58.387L142.626 58.2207C143.88 57.5914 144.935 56.6272 145.674 55.435C146.413 54.2428 146.807 52.8693 146.813 51.4666C146.813 51.4152 146.813 51.3608 146.813 51.3094C147.269 50.5219 147.509 49.6281 147.509 48.7184V47.8114L148.691 46.7592C149.232 46.2785 149.791 45.7706 150.067 45.1085C150.177 44.8405 150.227 44.5514 150.212 44.262C150.238 44.014 150.201 43.7633 150.104 43.5338C150.006 43.3042 149.852 43.1032 149.655 42.9498C148.748 42.324 147.237 42.9498 146.581 42.0791C146.278 41.6861 146.333 41.1509 146.185 40.6884C145.882 39.7481 144.794 39.2402 143.787 39.2251C142.78 39.2099 141.816 39.5758 140.848 39.8509C138.816 40.4279 136.694 40.6268 134.59 40.4374C134.021 40.3361 133.436 40.3567 132.876 40.4979C132.533 40.6395 132.229 40.8596 131.987 41.1406C131.746 41.4216 131.574 41.7555 131.485 42.1154C131.41 42.3858 131.366 42.6636 131.352 42.9438C130.509 43.8951 130.042 45.122 130.04 46.3934V48.7184C130.042 49.9595 130.487 51.1592 131.295 52.1015C131.39 53.1954 131.723 54.2555 132.269 55.2078C132.816 56.1602 133.563 56.982 134.46 57.616C134.46 57.6765 134.46 57.738 134.46 57.8005L134.499 57.8246C134.45 58.5454 134.339 59.2606 134.167 59.9622V59.808C134.167 59.808 129.934 62.0604 125.399 62.1148H124.9C124.006 62.0846 123.136 62.4109 122.482 63.0218C121.139 64.2855 118.787 66.284 117.342 66.284C117.04 66.284 109.409 67.7745 108.145 68.0224L105.784 65.7095L105.711 65.8456L105.572 65.7095C105.314 65.7295 105.057 65.7668 104.804 65.8214C103.595 64.3883 101.176 61.0566 100.617 56.5851C100.617 56.5851 105.838 50.6382 103.918 45.0964C102.28 40.3739 97.7658 50.4961 96.4839 53.5466C96.2596 54.0789 96.2317 54.6736 96.4052 55.2246L100.647 68.8961C100.243 69.9555 100.127 71.1031 100.311 72.2218H100.263L103.353 76.1854C103.353 76.1854 105.678 77.1771 109.315 77.1589C111.981 77.1633 114.622 76.6563 117.097 75.6654H117.814L117.677 75.7168H121.357L123.697 82.7944C123.618 83.4384 122.488 92.4268 121.581 94.4373C121.311 95.1091 121.19 95.8308 121.224 96.5536C121.271 97.9425 121.498 99.3194 121.898 100.65L123.948 100.575L123.869 100.735C122.134 104.293 119.234 110.633 117.52 116.559L114.536 122.606L116.773 149.725H116.864L117.037 149.752C117.278 149.789 117.641 149.843 118.119 149.903L117.944 150.206L113.012 158.369C113.012 158.369 109.496 165.567 117.275 164.21C117.275 164.21 120.151 163.375 121.324 158.466L126.439 153.668C126.439 153.668 126.678 150.481 125.23 149.208C125.139 147.736 124.909 143.437 125.263 142.403C125.689 141.151 123.449 126.757 123.449 126.757C123.449 126.757 131.546 109.962 136.449 109.545C136.809 109.52 137.17 109.567 137.511 109.684C141.541 110.996 146.423 120.74 147.859 123.773L147.926 123.912V123.939L147.98 124.057V124.09L148.029 124.193V124.22L148.071 124.314V124.335L148.107 124.411V124.441L148.135 124.498V124.523L148.153 124.565V124.589V124.616L148.168 124.653L148.806 143.533L148.869 143.567H148.899L148.845 143.957L148.567 145.907C148.567 145.907 152.083 153.314 151.868 154.251C151.654 155.188 154.212 158.946 157.833 157.903C161.455 156.86 159.3 150.98 159.3 150.98L155.811 143.79L155.657 143.47C156.004 143.257 156.332 143.013 156.636 142.741C156.636 142.741 155.572 135.023 156.636 133.354C157.7 131.685 158.021 124.069 158.021 124.069C158.021 124.069 157.274 118.854 155.995 116.559L150.638 97.4364C152.243 98.93 153.492 99.5135 154.535 99.4742H154.707C155.166 99.4828 155.618 99.3702 156.019 99.1477C156.235 99.0261 156.437 98.8833 156.624 98.7214C156.66 98.6906 156.693 98.6573 156.724 98.6216C158.214 97.3699 155.019 92.4661 153.208 89.5516C151.463 86.7399 153.867 79.0999 154.048 78.5315C154.21 78.4131 154.383 78.3117 154.565 78.2292C154.94 78.0685 155.343 77.9813 155.75 77.9722C157.486 78.0327 159.62 79.0303 162.263 79.5322C164.099 79.8446 165.96 79.9893 167.823 79.9646H167.931C168.672 79.9646 169.343 79.9494 169.888 79.9283C170.384 79.9088 170.87 79.7775 171.308 79.5443C171.685 79.325 172.025 79.0498 172.318 78.728L176.956 73.4886L176.835 73.546C177.06 72.9518 177.06 72.296 176.835 71.7018L181.736 63.2364C181.983 62.8193 182.133 62.3517 182.175 61.8685C182.216 61.3853 182.148 60.899 181.975 60.4459Z" fill="url(#paint0_linear)"/>
<path d="M126.914 152.951L121.977 157.682C120.846 162.52 118.067 163.339 118.067 163.339C110.561 164.675 113.953 157.595 113.953 157.595L118.714 149.537L119.301 148.543C119.301 148.543 122.696 147.515 124.958 148.132C125.243 148.21 125.507 148.353 125.729 148.549C127.147 149.779 126.914 152.951 126.914 152.951Z" fill="#444176"/>
<path d="M157.356 157.168C153.858 158.196 151.391 154.496 151.611 153.568C151.832 152.639 148.416 145.35 148.416 145.35L148.682 143.427L148.93 141.646L154.674 142.058L155.215 143.194L158.583 150.284C158.583 150.284 160.854 156.14 157.356 157.168Z" fill="#444176"/>
<path opacity="0.1" d="M125.783 149.353C125.242 150.281 120.855 149.813 118.718 149.522L119.304 148.528C119.304 148.528 122.699 147.5 124.961 148.117C125.246 148.195 125.51 148.338 125.732 148.534C125.762 149.036 125.783 149.353 125.783 149.353Z" fill="black"/>
<path opacity="0.1" d="M155.221 143.189C152.28 145.148 149.147 143.666 148.676 143.421L148.924 141.641L154.668 142.052L155.221 143.189Z" fill="black"/>
<path d="M156.019 132.897C154.991 134.542 156.019 142.154 156.019 142.154C152.624 145.241 148.615 142.977 148.615 142.977L148.011 124.362C148.011 124.362 141.326 109.037 136.594 109.448C131.863 109.859 124.048 126.418 124.048 126.418C124.048 126.418 126.206 140.61 125.795 141.837C125.384 143.065 125.795 149.036 125.795 149.036C125.076 150.269 117.569 149.036 117.569 149.036L115.41 122.294L118.276 116.326C119.924 110.485 122.723 104.233 124.398 100.726C125.23 98.9812 125.786 97.9169 125.786 97.9169L131.258 96.7772L149.02 93.0947L155.403 116.326C156.636 118.588 157.356 123.73 157.356 123.73C157.356 123.73 157.047 131.252 156.019 132.897Z" fill="#565387"/>
<g opacity="0.1">
<path opacity="0.1" d="M150.26 142.977L149.655 124.362C149.655 124.362 142.971 109.037 138.239 109.448C138.028 109.469 137.819 109.515 137.619 109.587C142.233 111.12 148.011 124.362 148.011 124.362L148.615 142.977C149.877 143.62 151.299 143.879 152.706 143.724C151.853 143.621 151.025 143.368 150.26 142.977Z" fill="black"/>
<path opacity="0.1" d="M119.201 149.045L117.043 122.303L119.921 116.326C121.569 110.485 124.368 104.233 126.043 100.726C126.875 98.9811 127.431 97.9168 127.431 97.9168L132.903 96.777L149.117 93.406L149.03 93.0825L131.258 96.777L125.786 97.9168C125.786 97.9168 125.23 98.9811 124.398 100.726C122.717 104.233 119.924 110.497 118.276 116.326L115.398 122.291L117.557 149.032C117.557 149.032 121.656 149.707 124.087 149.559C122.451 149.47 120.82 149.298 119.201 149.045Z" fill="black"/>
</g>
<path d="M106.694 66.2021C106.694 66.2021 100.831 66.5045 101.654 72.6812L103.298 72.8868L105.766 70.2141L106.999 67.9527V67.4387L106.694 66.2021Z" fill="#CED2DF"/>
<path opacity="0.1" d="M106.694 66.2021C106.694 66.2021 100.831 66.5045 101.654 72.6812L103.298 72.8868L105.766 70.2141L106.999 67.9527V67.4387L106.694 66.2021Z" fill="black"/>
<path d="M171.91 68.4634C171.91 68.4634 176.748 71.0332 175.511 74.0173L173.969 74.6219L171.913 73.4912L171.611 70.8186L171.816 68.9683L171.91 68.4634Z" fill="#CED2DF"/>
<path opacity="0.1" d="M171.91 68.4634C171.91 68.4634 176.748 71.0332 175.511 74.0173L173.969 74.6219L171.913 73.4912L171.611 70.8186L171.816 68.9683L171.91 68.4634Z" fill="black"/>
<path d="M140.851 41.9277H136.737C133.215 41.9277 130.36 44.7825 130.36 48.304C130.36 51.8255 133.215 54.6802 136.737 54.6802H140.851C144.373 54.6802 147.228 51.8255 147.228 48.304C147.228 44.7825 144.373 41.9277 140.851 41.9277Z" fill="#88455E"/>
<path d="M106.654 67.0757L103.054 72.8201L102.751 71.7982L97.8595 55.8591C97.6922 55.3158 97.719 54.7312 97.9351 54.2054C99.1717 51.2002 103.531 41.205 105.113 45.8761C106.963 51.3181 101.923 57.1894 101.923 57.1894C102.497 61.9542 105.173 65.4068 106.225 66.6041C106.491 66.9155 106.654 67.0757 106.654 67.0757Z" fill="#EC8C9C"/>
<path d="M171.139 69.543C171.139 69.543 176.796 64.1947 176.581 62.036C176.581 62.036 171.233 53.3983 173.909 51.4543C176.025 49.9064 179.239 57.7066 180.484 61.0232C180.649 61.465 180.715 61.9374 180.678 62.4075C180.641 62.8775 180.502 63.3337 180.27 63.7442L173.509 75.7136L171.139 69.543Z" fill="#EC8C9C"/>
<path d="M134.523 54.6317C134.523 54.6317 135.551 61.2135 132.57 63.6836C129.589 66.1537 141.108 66.1386 141.108 66.1386L145.223 62.3322C145.223 62.3322 140.492 57.909 141.931 54.6196L134.523 54.6317Z" fill="#EC8C9C"/>
<path opacity="0.1" d="M134.318 62.1387C134.318 62.1387 138.741 65.4311 143.161 61.7275L150.36 76.6417L149.949 94.8452C149.949 94.8452 135.035 102.558 128.864 97.8292C122.693 93.1007 127.836 90.6307 127.836 90.6307L126.397 76.6447L127.939 67.5928C127.939 67.5928 130.714 63.2725 130.923 63.2725C131.131 63.2725 134.318 62.1387 134.318 62.1387Z" fill="black"/>
<path d="M134.318 61.9331C134.318 61.9331 138.741 65.2316 143.164 61.522L150.363 76.4361L149.952 94.6396C149.952 94.6396 135.037 102.352 128.867 97.6237C122.696 92.8952 127.839 90.4251 127.839 90.4251L126.4 76.4391L127.942 67.3873C127.942 67.3873 130.717 63.0669 130.926 63.0669C131.134 63.0669 134.318 61.9331 134.318 61.9331Z" fill="#EBF1F6"/>
<path opacity="0.1" d="M134.318 60.3945C134.318 60.3945 130.124 62.783 125.571 62.6651C125.144 62.6517 124.719 62.7234 124.32 62.876C123.92 63.0286 123.556 63.259 123.246 63.5539C121.949 64.7995 119.679 66.7708 118.273 66.7708C117.971 66.7708 109.221 68.5182 109.221 68.5182L106.908 66.2054C106.908 66.2054 103.462 72.9414 101.817 72.633L104.801 76.5422C104.801 76.5422 110.458 79.0092 117.862 76.0282H122.182L124.444 83.0212C124.444 83.0212 123.313 92.4843 122.388 94.5401C121.463 96.596 122.69 100.608 122.69 100.608L130.814 100.306C130.814 100.306 131.225 96.2937 131.842 95.7706C132.458 95.2476 129.683 77.5671 129.683 77.5671C129.683 77.5671 127.833 67.5901 134.62 63.9923L134.318 60.3945Z" fill="black"/>
<path opacity="0.1" d="M131.255 96.7891C130.956 98.0092 130.743 99.2488 130.617 100.499L124.398 100.735C125.23 98.9901 125.786 97.9258 125.786 97.9258L131.255 96.7891Z" fill="black"/>
<path opacity="0.1" d="M106.654 67.0757L103.054 72.8201L102.751 71.7982C104.072 70.4861 105.62 67.7439 106.237 66.6011C106.491 66.9155 106.654 67.0757 106.654 67.0757Z" fill="black"/>
<path d="M134.318 60.3945C134.318 60.3945 129.916 62.783 125.366 62.6651C124.939 62.6517 124.513 62.7234 124.114 62.876C123.715 63.0286 123.35 63.259 123.041 63.5539C121.744 64.7995 119.473 66.7708 118.067 66.7708C117.765 66.7708 109.016 68.5182 109.016 68.5182L106.694 66.2024C106.694 66.2024 103.247 72.9384 101.602 72.63L104.586 76.5392C104.586 76.5392 110.243 79.0062 117.647 76.0252H121.968L124.229 83.0152C124.229 83.0152 123.098 92.4782 122.173 94.5341C121.248 96.59 122.475 100.602 122.475 100.602L130.599 100.3C130.599 100.3 131.01 96.2876 131.627 95.7646C132.244 95.2415 129.468 77.5611 129.468 77.5611C129.468 77.5611 127.618 67.584 134.406 63.9863L134.318 60.3945Z" fill="#6FCF97"/>
<path opacity="0.1" d="M143.164 59.7715C143.164 59.7715 147.361 62.9702 152.963 63.339C153.576 63.3775 154.162 63.6045 154.641 63.989C156.054 65.1877 157.251 66.6192 158.181 68.2217C160.443 71.9253 165.997 71.5141 165.997 71.5141C165.997 71.5141 171.396 69.818 171.705 68.4908C171.705 68.4908 171.859 75.7468 175.254 73.9933L170.789 79.139C170.507 79.4641 170.162 79.728 169.775 79.9147C169.387 80.1014 168.966 80.2068 168.536 80.2244C166.858 80.2909 163.944 80.312 161.483 79.8344C157.779 79.1148 155.106 77.3673 153.153 78.9092C153.153 78.9092 150.584 86.9301 152.331 89.8114C154.079 92.6926 157.168 97.5239 155.726 98.7605C154.284 99.997 152.537 99.8912 149.658 96.9102C146.78 93.9292 146.469 88.8893 146.469 88.8893L147.188 75.9312C147.188 75.9312 144.413 66.1598 141.746 64.2067L143.164 59.7715Z" fill="black"/>
<path opacity="0.1" d="M175.662 73.8631L171.184 79.03C170.887 79.3728 170.519 79.6471 170.105 79.8342C169.737 80.0001 169.341 80.0936 168.938 80.1093C167.26 80.1789 164.346 80.2 161.885 79.7193C158.42 79.0451 155.856 77.473 153.939 78.5342C153.803 78.609 153.674 78.695 153.552 78.7912C153.552 78.7912 150.982 86.8121 152.73 89.6933C154.477 92.5746 157.567 97.4059 156.125 98.6424C155.884 98.8547 155.613 99.0309 155.321 99.1654C154.027 99.7489 152.422 99.2441 150.057 96.7921C147.179 93.8081 146.868 88.7712 146.868 88.7712L147.587 75.8132C147.587 75.8132 144.812 66.0417 142.145 64.0887L143.321 59.8711C144.132 60.4213 148.177 63.0063 153.177 63.3358C153.79 63.3743 154.376 63.6013 154.855 63.9859C156.268 65.1847 157.465 66.6162 158.396 68.2185C160.657 71.9221 166.211 71.511 166.211 71.511C167.543 71.0862 168.843 70.569 170.102 69.963C170.891 69.576 171.587 69.1527 171.916 68.7537C172.009 68.6494 172.076 68.5253 172.113 68.3909C172.113 68.3909 172.27 75.6106 175.662 73.8631Z" fill="black"/>
<path d="M175.456 73.966L170.982 79.1389C170.736 79.4228 170.441 79.6604 170.111 79.8403C169.689 80.0698 169.219 80.1991 168.739 80.2182C167.061 80.2878 164.146 80.3089 161.685 79.8282C158.344 79.1782 155.838 77.6907 153.948 78.5403C153.733 78.6343 153.529 78.7552 153.344 78.9001C153.344 78.9001 150.774 86.921 152.521 89.8022C154.269 92.6835 157.359 97.5148 155.917 98.7513C155.73 98.9119 155.527 99.0527 155.312 99.1716C153.982 99.9062 152.337 99.4739 149.843 96.901C146.965 93.917 146.653 88.8801 146.653 88.8801L147.373 75.9221C147.373 75.9221 144.597 66.1506 141.931 64.1976L143.164 59.7744L143.312 59.8772C144.123 60.4275 148.168 63.0124 153.168 63.342C153.781 63.3804 154.367 63.6075 154.846 63.992C156.259 65.1908 157.456 66.6223 158.387 68.2246C160.648 71.9282 166.202 71.5171 166.202 71.5171C167.534 71.0923 168.834 70.5751 170.093 69.9691C171.027 69.4914 171.789 68.9684 171.907 68.4907C171.907 68.4907 171.907 68.5844 171.907 68.7507C171.998 69.9993 172.451 75.5109 175.456 73.966Z" fill="#6FCF97"/>
<path opacity="0.1" d="M142.021 54.7861H134.463C134.629 55.9879 134.677 57.2031 134.605 58.4141C135.759 59.2261 137.112 59.7085 138.519 59.8097C139.926 59.9109 141.335 59.627 142.593 58.9886C141.867 57.6462 141.426 56.1224 142.021 54.7861Z" fill="black"/>
<path d="M139.049 59.6687C143.195 59.6687 146.556 56.3077 146.556 52.1617C146.556 48.0158 143.195 44.6548 139.049 44.6548C134.903 44.6548 131.542 48.0158 131.542 52.1617C131.542 56.3077 134.903 59.6687 139.049 59.6687Z" fill="#EC8C9C"/>
<path opacity="0.1" d="M137.489 50.8253C138.327 50.7256 139.164 50.4293 139.99 50.5956C140.74 50.7467 141.377 51.2637 142.127 51.4209C143.572 51.7233 144.915 50.659 146.006 49.6674L148.364 47.5208C148.887 47.0462 149.426 46.5473 149.695 45.8943C149.964 45.2412 149.87 44.3826 149.296 43.9714C148.434 43.3667 146.949 43.9714 146.327 43.1128C146.045 42.7258 146.088 42.2058 145.943 41.7432C145.64 40.8181 144.6 40.3132 143.627 40.3011C142.653 40.289 141.722 40.6457 140.791 40.9057C138.829 41.4748 136.778 41.6707 134.744 41.4832C134.195 41.3827 133.631 41.4023 133.09 41.5407C132.758 41.6827 132.463 41.9009 132.23 42.1776C131.997 42.4543 131.832 42.7819 131.748 43.134C131.283 44.7787 132.078 47.4301 132.876 48.9025C133.674 50.3749 135.896 51.0219 137.489 50.8253Z" fill="black"/>
<path d="M137.489 50.6198C138.327 50.52 139.164 50.2237 139.99 50.39C140.74 50.5412 141.377 51.0582 142.127 51.2154C143.572 51.5177 144.915 50.4535 146.006 49.4618L148.364 47.3152C148.887 46.8406 149.426 46.3417 149.695 45.6887C149.964 45.0356 149.87 44.177 149.296 43.7658C148.434 43.1612 146.949 43.7659 146.327 42.9072C146.045 42.5202 146.088 42.0002 145.943 41.5376C145.64 40.6125 144.6 40.1076 143.627 40.0955C142.653 40.0834 141.722 40.4402 140.791 40.7002C138.829 41.2692 136.778 41.4651 134.744 41.2776C134.195 41.1771 133.631 41.1967 133.09 41.3351C132.758 41.4771 132.463 41.6953 132.23 41.972C131.997 42.2487 131.832 42.5763 131.748 42.9284C131.283 44.5731 132.078 47.2245 132.876 48.6969C133.674 50.1693 135.896 50.8012 137.489 50.6198Z" fill="#88455E"/>
<path opacity="0.1" d="M124.395 83.0693C124.395 83.0693 126.04 83.2749 126.862 84.3029C127.685 85.3308 129.124 85.6392 129.124 85.6392" fill="black"/>
<path opacity="0.1" d="M109.584 69.4912C109.584 69.4912 110.926 72.4873 110.098 72.7897C109.27 73.092 109.584 75.2567 109.584 75.2567" fill="black"/>
<g opacity="0.1">
<path opacity="0.1" d="M110.047 68.4633C110.047 68.4633 118.787 66.7158 119.089 66.7158C120.498 66.7158 122.766 64.7446 124.063 63.499C124.457 63.1211 124.943 62.8514 125.472 62.7159H125.36C124.933 62.7026 124.507 62.7743 124.108 62.9269C123.709 63.0795 123.344 63.3099 123.035 63.6048C121.738 64.8504 119.467 66.8216 118.061 66.8216C117.817 66.8216 112.223 67.9312 109.953 68.3817L110.047 68.4633Z" fill="black"/>
<path opacity="0.1" d="M134.33 60.8263V60.4424C132.227 61.5145 129.965 62.2384 127.63 62.5859C129.947 62.3798 132.212 61.785 134.33 60.8263Z" fill="black"/>
<path opacity="0.1" d="M123.522 100.55C123.522 100.55 122.288 96.538 123.219 94.4821C124.151 92.4263 125.275 82.9632 125.275 82.9632L123.02 75.9702H118.687L118.424 76.073H121.977L124.229 83.069C124.229 83.069 123.098 92.5321 122.173 94.588C121.248 96.6438 122.476 100.656 122.476 100.656L130.599 100.353V100.29L123.522 100.55Z" fill="black"/>
</g>
<g opacity="0.1">
<path opacity="0.1" d="M156.019 97.1066C155.833 97.2672 155.63 97.408 155.415 97.5269C154.084 98.2616 152.44 97.8292 149.945 95.2564C147.66 92.8891 146.995 89.2097 146.816 87.8159L146.756 88.8801C146.756 88.8801 147.058 93.92 149.945 96.9011C152.44 99.483 154.084 99.9063 155.415 99.1716C155.63 99.0527 155.833 98.9119 156.019 98.7513C156.452 98.3795 156.476 97.6811 156.249 96.8104C156.193 96.9234 156.115 97.0241 156.019 97.1066Z" fill="black"/>
<path opacity="0.1" d="M174.002 74.1203L171.091 77.4853C170.845 77.7692 170.55 78.0067 170.22 78.1867C169.797 78.4162 169.328 78.5455 168.847 78.5646C167.169 78.6342 164.255 78.6553 161.794 78.1746C158.453 77.5246 155.947 76.0371 154.057 76.8867C153.841 76.9807 153.638 77.1015 153.453 77.2464C153.453 77.2464 151.793 82.4284 152.047 85.9567C152.243 82.6582 153.453 78.8911 153.453 78.8911C153.638 78.7462 153.841 78.6253 154.057 78.5314C155.95 77.6818 158.453 79.1693 161.794 79.8193C164.255 80.297 167.166 80.2758 168.847 80.2093C169.328 80.1902 169.797 80.0609 170.22 79.8314C170.549 79.6541 170.844 79.4197 171.091 79.1391L175.568 73.9722C175.337 74.1164 175.074 74.2049 174.803 74.2306C174.531 74.2563 174.257 74.2186 174.002 74.1203Z" fill="black"/>
</g>
<path d="M42.5203 111.153C42.5562 111.188 42.6023 111.21 42.6518 111.217C42.7014 111.223 42.7517 111.214 42.7954 111.19C42.7024 111.191 42.6097 111.179 42.5203 111.153Z" fill="url(#paint1_linear)"/>
<path d="M73.3312 61.0712C72.787 60.914 72.01 60.6571 71.0758 60.3305C72.0466 59.0815 72.757 57.6505 73.1649 56.122L73.0863 56.1523C73.1135 56.0586 73.1407 55.9679 73.1649 55.8711C71.3721 56.5997 69.3888 55.3662 68.125 53.782C66.8613 52.1977 66.0087 50.2326 64.624 48.7753C64.0469 48.1956 63.4263 47.6609 62.7677 47.176C62.3595 46.8736 61.9211 46.532 61.4223 46.5169C60.615 46.4927 59.9832 47.2848 59.2062 47.5176C58.6949 47.6327 58.1625 47.6129 57.6612 47.4602C55.6568 47.0006 53.7309 46.1511 51.6841 45.9273C50.589 45.7921 49.4775 45.9174 48.44 46.2932C47.4121 46.6832 46.9435 47.4602 46.1121 48.083C45.2051 48.7511 43.4334 48.736 42.3782 48.8539C41.0979 49.0002 39.8086 49.0537 38.5205 49.0142C37.7802 48.95 37.0349 48.9774 36.3013 49.0958C34.7685 49.4314 33.538 50.6498 32.3891 51.8168C32.0755 52.0808 31.8498 52.4341 31.7421 52.8296C31.7274 52.941 31.7274 53.0538 31.7421 53.1652C31.7306 53.47 31.7831 53.7739 31.8963 54.0571C32.25 55.1065 32.7497 56.1009 33.3808 57.0109C33.8494 57.6821 34.3966 58.314 34.6627 59.1091C34.7888 59.5 34.8551 59.9077 34.8592 60.3184C34.8462 60.7546 34.8007 61.1891 34.7232 61.6185C34.5203 62.8055 34.1867 63.9665 33.7285 65.0802C33.444 65.6519 33.2483 66.2636 33.148 66.8942C33.1393 67.0231 33.1393 67.1523 33.148 67.2812C33.0724 69.2766 35.086 70.7127 35.476 72.696C35.508 72.8605 35.5272 73.0273 35.5334 73.1948C35.4911 74.4314 34.7866 75.6407 33.7466 76.1214C33.8373 76.1577 33.931 76.188 34.0248 76.2182C33.9353 76.2743 33.8424 76.3248 33.7466 76.3694C33.9371 76.4419 34.1306 76.5054 34.3271 76.5568C33.1451 77.5863 32.1517 78.814 31.3914 80.1848C27.8934 86.6971 4.20253 99.4526 4.20253 99.4526L4.55324 99.6521L4.26905 99.8365C2.21922 101.2 -2.59091 105.176 1.75665 110.204C1.75665 110.204 5.15186 104.846 7.53123 102.564C7.63705 102.461 7.74286 102.367 7.83356 102.279C7.88584 102.36 7.92088 102.45 7.93649 102.545C7.9521 102.64 7.94794 102.737 7.92426 102.83L23.5005 94.0771C23.5005 94.0771 29.0362 90.2011 30.5812 89.3274C31.6686 88.6499 32.8519 88.1403 34.0913 87.8157L33.9099 87.8913C34.4923 87.7311 35.0927 87.6458 35.6967 87.6373C38.454 87.6797 41.441 89.6993 42.4236 97.696C43.7418 108.405 43.1311 110.337 42.7078 110.6C42.6556 110.596 42.604 110.587 42.5536 110.572C42.5667 110.584 42.5809 110.594 42.5959 110.603C42.5386 110.599 42.4818 110.588 42.4266 110.572C42.4571 110.6 42.4942 110.62 42.5344 110.63C42.5746 110.639 42.6166 110.638 42.6564 110.627C42.685 110.635 42.7151 110.638 42.7448 110.634C42.7745 110.631 42.8031 110.621 42.8287 110.606C42.8982 110.61 42.9679 110.61 43.0373 110.606C43.0373 110.704 43.0303 110.805 43.0162 110.908C42.995 110.908 42.8922 110.965 43.0162 110.971C42.9829 111.576 42.9859 112.232 43.0162 112.919C41.6466 112.994 40.277 113.076 39.0858 113.148L39.1916 112.583L39.24 112.329C40.2921 112.244 41.2898 111.936 41.4078 111.083C41.6647 109.209 39.0919 108.208 36.903 108.084C34.7141 107.96 21.5867 108.834 21.5867 108.834C21.5867 108.834 19.6185 111.383 25.8617 112.16C26.0472 112.256 26.2397 112.357 26.4392 112.462C28.8851 113.856 32.2017 116.423 33.792 117.686L34.0127 117.862L33.2992 118.442C37.16 119.316 40.8938 134.07 42.9527 140.815C45.0116 147.56 49.5164 147.315 53.2502 146.314C56.7482 145.377 57.1805 135.219 57.238 133.943V133.813L63.46 141.498L63.9316 142.082C64.113 142.176 64.2924 142.265 64.4698 142.348C69.1802 144.588 74.3833 140.292 72.9049 135.394C71.4084 130.457 69.0864 123.156 67.5385 120.069C66.2415 117.484 64.5665 113.191 63.5507 110.503C63.6826 110.45 63.8109 110.388 63.9347 110.318C63.9347 110.318 63.9105 110.198 63.8712 109.977L63.9347 109.944C63.9347 109.944 62.423 102.168 62.3565 96.6409C62.3565 96.5441 62.3565 96.4433 62.3565 96.3385C62.3565 96.278 62.3565 96.2176 62.3565 96.1601C63.4812 95.9031 64.1947 95.8034 64.1947 95.8034L64.2158 95.5615L64.0858 95.5887L64.7117 88.4264C64.7117 88.4264 67.0094 83.5377 65.2498 81.503C64.7149 80.9079 64.3577 80.1747 64.2189 79.3866C63.9165 77.5152 64.2189 74.3921 68.3155 71.7981C74.6222 67.7982 77.0832 64.542 77.0832 64.542C77.0832 64.542 77.192 62.208 73.3312 61.0712ZM60.8055 66.0416V62.7311C61.9755 62.6736 63.1698 62.8097 64.3458 62.7311C64.9232 62.6907 65.4952 62.5945 66.054 62.4438L66.3382 62.6404C64.6176 63.9639 62.7633 65.1038 60.8055 66.0416ZM42.9225 117.934C43.385 118.255 43.8506 118.587 44.3071 118.923C44.5913 120.555 44.8423 121.707 44.8604 121.789C44.3387 120.445 43.6897 119.155 42.9225 117.934Z" fill="url(#paint2_linear)"/>
<path d="M52.9176 115.213L52.6455 116.692L52.4369 117.823L52.0559 119.89L48.3614 122.475C48.3614 122.475 48.0289 122.191 47.4786 121.741C45.9669 120.495 42.7834 117.968 40.4463 116.601C39.8457 116.218 39.1958 115.918 38.5144 115.709L52.9176 115.213Z" fill="#FFBDC6"/>
<path opacity="0.1" d="M52.9174 115.213L52.6453 116.692C51.831 116.737 51.0141 116.696 50.2085 116.568L41.589 116.692C41.1808 116.668 40.7999 116.634 40.4431 116.598C39.8426 116.215 39.1926 115.915 38.5112 115.706L52.9174 115.213Z" fill="black"/>
<path d="M50.2085 116.326C50.2085 116.326 54.5198 117.064 54.7647 115.216C55.0096 113.369 52.5486 112.396 50.4594 112.257C48.3703 112.117 35.8023 113 35.8023 113C35.8023 113 33.5862 115.954 41.589 116.447L50.2085 116.326Z" fill="#7679B4"/>
<path opacity="0.1" d="M52.9176 115.213L52.6455 116.692L52.4369 117.823L52.0559 119.89L48.3614 122.475C48.3614 122.475 48.0289 122.191 47.4786 121.741C45.9669 120.495 42.7834 117.968 40.4463 116.601C39.8457 116.218 39.1958 115.918 38.5144 115.709L52.9176 115.213Z" fill="black"/>
<path opacity="0.1" d="M52.9174 115.213L52.6453 116.692C51.831 116.737 51.0141 116.696 50.2085 116.568L41.589 116.692C41.1808 116.668 40.7999 116.634 40.4431 116.598C39.8426 116.215 39.1926 115.915 38.5112 115.706L52.9174 115.213Z" fill="black"/>
<path opacity="0.1" d="M50.2085 116.326C50.2085 116.326 54.5198 117.064 54.7647 115.216C55.0096 113.369 52.5486 112.396 50.4594 112.257C48.3703 112.117 35.8023 113 35.8023 113C35.8023 113 33.5862 115.954 41.589 116.447L50.2085 116.326Z" fill="black"/>
<path d="M59.6262 55.6143H37.0933V82.3345H59.6262V55.6143Z" fill="#A66477"/>
<path opacity="0.1" d="M59.6262 55.6143H37.0933V82.3345H59.6262V55.6143Z" fill="black"/>
<path d="M10.6814 101.361C10.3095 101.454 9.8379 101.811 9.30882 102.331C7.03225 104.581 3.78518 109.856 3.78518 109.856C-0.374938 104.904 4.22961 100.989 6.20385 99.6435C6.68154 99.317 7.00201 99.1416 7.00201 99.1416L10.6814 101.361Z" fill="#FFBDC6"/>
<path d="M52.6728 64.0493C52.6728 64.0493 53.7823 71.8072 57.5978 73.6545C61.4132 75.5017 52.6728 78.9483 52.6728 78.9483L40.7275 74.5161C40.7275 74.5161 47.4998 72.3 46.1454 65.7726L52.6728 64.0493Z" fill="#FFBDC6"/>
<path d="M39.8778 110.718L39.6057 112.196L39.3971 113.327L39.0162 115.395L35.3216 117.98C35.3216 117.98 34.9891 117.696 34.4388 117.245C32.9271 116 29.7436 113.472 27.4065 112.105C26.806 111.722 26.156 111.422 25.4746 111.214L39.8778 110.718Z" fill="#FFBDC6"/>
<path opacity="0.1" d="M39.8779 110.718L39.6058 112.196C38.7914 112.241 37.9745 112.2 37.169 112.072L28.5494 112.196C28.1413 112.172 27.7603 112.139 27.4036 112.102C26.803 111.719 26.1531 111.419 25.4717 111.211L39.8779 110.718Z" fill="black"/>
<path d="M37.1568 111.827C37.1568 111.827 41.4681 112.565 41.713 110.718C41.9579 108.871 39.4969 107.885 37.4017 107.764C35.3066 107.643 22.7476 108.502 22.7476 108.502C22.7476 108.502 20.5315 111.456 28.5343 111.948L37.1568 111.827Z" fill="#7679B4"/>
<path opacity="0.1" d="M39.385 113.33L39.0041 115.398L35.3096 117.983C35.3096 117.983 34.977 117.699 34.4268 117.248L39.3125 113.242L39.385 113.33Z" fill="black"/>
<path d="M63.7621 141.519C63.5928 141.437 63.4215 141.349 63.2482 141.256L62.7977 140.682L56.8478 133.123V133.256C56.8084 134.511 56.3791 144.518 53.0353 145.441C49.4648 146.426 45.1535 146.671 43.1853 140.023C41.2171 133.374 37.6435 118.844 33.949 117.983L39.4273 113.487C39.4273 113.487 43.0553 117.72 44.5367 121.795C44.4823 121.535 41.9759 109.832 44.0439 107.764H62.0207C62.0207 107.764 64.7901 115.667 66.7008 119.585C68.1823 122.626 70.4044 129.816 71.8405 134.68C73.2615 139.494 68.2971 143.726 63.7621 141.519Z" fill="#7679B4"/>
<path opacity="0.1" d="M63.2603 109.977C60.4879 111.619 48.2978 110.951 44.3252 110.685L43.2458 110.606C43.1279 110.606 43.264 110.54 43.264 110.54L43.3758 109.421L46.3296 101.911L62.1538 92.7441C61.8333 93.7086 61.7245 95.187 61.7517 96.8831C61.8303 102.319 63.2603 109.977 63.2603 109.977Z" fill="black"/>
<path d="M63.2603 109.611C60.4879 111.253 48.2978 110.585 44.3251 110.319L43.2458 110.24H43.0674L43.2639 110.189L44.2374 109.932L46.3296 101.557L62.1537 92.3843C61.8333 93.3487 61.7244 94.8271 61.7516 96.5232C61.8302 101.95 63.2603 109.611 63.2603 109.611Z" fill="#F2F1F2"/>
<path opacity="0.1" d="M61.7516 96.511C58.5348 97.2517 51.4541 99.4315 48.7331 104.674C46.9191 108.175 45.4074 109.678 44.3281 110.306L43.2488 110.228L43.2669 110.161L44.2404 109.904L46.3326 101.53L62.1567 92.3569C61.8302 93.3486 61.7244 94.8149 61.7516 96.511Z" fill="black"/>
<path opacity="0.1" d="M6.98688 99.1445L10.6814 101.361C10.3095 101.454 9.83789 101.811 9.3088 102.331C9.00647 101.424 7.06549 100.179 6.18872 99.6464C6.66641 99.3199 6.98688 99.1445 6.98688 99.1445Z" fill="black"/>
<path opacity="0.1" d="M42.5989 110.382C42.5577 110.405 42.5102 110.414 42.4634 110.408C42.4166 110.402 42.373 110.381 42.3389 110.349C42.4234 110.373 42.511 110.384 42.5989 110.382Z" fill="black"/>
<path d="M50.9464 73.1617C50.9464 73.1617 47.6207 73.5305 45.2806 71.0695C45.2806 71.0695 35.4306 73.9024 32.1049 80.3058C28.7792 86.7093 6.12231 99.2682 6.12231 99.2682C6.12231 99.2682 10.0527 101.484 9.69288 102.594L24.5919 93.9744C24.5919 93.9744 29.8858 90.1559 31.3642 89.2942C32.8426 88.4326 40.9693 83.1387 42.6926 97.5449C44.4159 111.951 42.6926 110.243 42.6926 110.243C42.6926 110.243 45.1567 111.105 48.7393 104.196C52.322 97.2879 63.3934 95.7007 63.3934 95.7007L63.9981 88.4447C63.9981 88.4447 66.1961 83.6315 64.5121 81.624C63.9985 81.0333 63.6575 80.3126 63.5265 79.5409C63.2453 77.6967 63.5265 74.622 67.4568 72.0672C73.5035 68.1369 75.8315 64.9261 75.8315 64.9261C75.8315 64.9261 75.9554 62.586 72.2609 61.4795C68.5664 60.373 53.5434 54.3384 53.5434 54.3384L53.0506 56.4305L64.8719 64.8052C64.8719 64.8052 58.9612 69.6062 54.2902 69.4853C54.272 69.4642 55.1337 73.0377 50.9464 73.1617Z" fill="#EE7979"/>
<path opacity="0.1" d="M53.2288 67.4267C52.9377 66.4345 52.7105 65.4246 52.5486 64.4033L46.0212 66.1387C46.3069 67.3843 46.2558 68.6835 45.873 69.9028C47.2071 70.2587 48.6164 70.2133 49.9248 69.7723C51.2331 69.3314 52.3824 68.5144 53.2288 67.4236V67.4267Z" fill="black"/>
<path d="M47.808 69.7757C51.6852 69.7757 54.8282 66.6327 54.8282 62.7555C54.8282 58.8784 51.6852 55.7354 47.808 55.7354C43.9309 55.7354 40.7878 58.8784 40.7878 62.7555C40.7878 66.6327 43.9309 69.7757 47.808 69.7757Z" fill="#FFBDC6"/>
<path opacity="0.1" d="M51.5389 46.7894C53.4859 47.0101 55.3392 47.8476 57.256 48.3011C57.735 48.4513 58.2453 48.4711 58.7344 48.3585C59.4782 48.1288 60.0828 47.3487 60.8508 47.3729C61.3254 47.3729 61.7578 47.7115 62.1387 48.0229C62.7698 48.5017 63.3631 49.0284 63.9134 49.5981C65.2346 51.0342 66.057 52.9691 67.2633 54.5292C68.4696 56.0892 70.3713 57.3046 72.0855 56.5881C70.9215 61.1231 67.1 64.5909 62.9701 64.872C61.3224 64.9839 59.6445 64.6423 58.0391 65.126C57.6412 65.2882 57.2214 65.3901 56.7935 65.4283C55.8864 65.4283 55.1367 64.5848 54.5622 63.7655C53.2199 61.8366 52.1436 59.6477 50.6319 57.8911C50.133 57.3107 49.5435 56.7574 48.839 56.6516C48.1346 56.5458 47.4846 56.8813 46.8557 57.2079C45.8187 57.746 44.7575 58.3023 43.9533 59.2214C43.1491 60.1405 42.6412 61.5161 42.9738 62.7617C43.1521 63.4329 43.5633 64.0376 43.5784 64.742C43.5784 65.8607 42.6049 66.68 42.4084 67.7654C42.3651 68.2236 42.3489 68.6839 42.36 69.144C42.2723 70.6375 41.2988 71.865 40.2769 72.7992C39.8809 73.1651 39.4395 73.5551 39.3246 74.1204C39.246 74.5044 39.3246 74.9125 39.2732 75.3026C39.125 76.2731 38.1576 76.7628 37.302 76.8898C36.3027 77.0363 35.2824 76.9153 34.3451 76.5391C35.5545 75.9737 36.2771 74.3623 35.9989 72.9111C35.618 70.9127 33.6105 69.4796 33.7798 67.4419C33.8745 66.8179 34.062 66.2115 34.3361 65.643C34.7742 64.5436 35.0925 63.4002 35.2854 62.2327C35.4832 61.334 35.4635 60.4011 35.228 59.5116C34.971 58.7286 34.4479 58.1058 34.0005 57.4437C33.3945 56.5435 32.9163 55.5637 32.5795 54.5322C32.4575 54.2273 32.4108 53.8975 32.4435 53.5708C32.541 53.1853 32.7515 52.8379 33.0481 52.5731C34.1486 51.4212 35.3277 50.2209 36.791 49.8884C37.4902 49.7719 38.2013 49.7445 38.9074 49.8067C40.1401 49.8459 41.374 49.7934 42.5989 49.6495C43.6087 49.5316 45.3199 49.5467 46.1725 48.8876C46.9676 48.283 47.4181 47.512 48.4007 47.125C49.4035 46.7579 50.4811 46.6427 51.5389 46.7894Z" fill="black"/>
<path opacity="0.1" d="M55.4419 119.277C55.4419 119.277 59.5053 127.28 58.2748 129.744L55.4419 119.277Z" fill="black"/>
<path opacity="0.1" d="M62.81 140.682L56.8601 133.124V133.257C56.8601 133.257 56.5154 130.814 57.6492 131.636C60.1313 133.432 64.104 136.377 64.1886 136.885C64.2733 137.393 63.3844 139.431 62.81 140.682Z" fill="black"/>
<g opacity="0.1">
<path opacity="0.1" d="M54.3897 69.4645C54.3897 69.4645 54.8916 71.5446 53.2681 72.5846C55.7684 72.1553 55.8772 70.2113 55.8016 69.3647C55.3349 69.4403 54.8624 69.4737 54.3897 69.4645Z" fill="black"/>
<path opacity="0.1" d="M7.60357 98.7758C7.60357 98.7758 30.2605 86.2168 33.5862 79.8134C35.9716 75.2179 41.7189 72.4637 44.7725 71.2725C42.5443 72.0192 35.0464 74.8823 32.2287 80.3062C28.903 86.7096 6.24609 99.2686 6.24609 99.2686L7.60357 98.7758Z" fill="black"/>
<path opacity="0.1" d="M58.7979 68.4878C62.6526 67.2784 66.3381 64.2944 66.3381 64.2944L54.5168 55.9198L54.7859 54.7709L53.6552 54.3174L53.1624 56.4095L64.9836 64.7842C63.0866 66.2754 61.0081 67.5198 58.7979 68.4878Z" fill="black"/>
<path opacity="0.1" d="M58.8733 96.8649C60.3838 96.3493 61.9338 95.958 63.5081 95.6949L63.5292 95.4561C61.9431 95.8045 60.3865 96.2755 58.8733 96.8649Z" fill="black"/>
<path opacity="0.1" d="M44.5458 109.766H44.437C44.3958 109.788 44.3483 109.798 44.3015 109.792C44.2547 109.786 44.2111 109.765 44.177 109.732C44.2616 109.756 44.3492 109.767 44.437 109.766C44.8421 109.53 45.4498 107.691 44.177 97.0493C42.8165 85.6876 37.4773 86.5795 34.5537 87.8856C37.5408 87.0632 41.6525 87.7737 42.8225 97.5421C44.0954 108.184 43.4877 110.026 43.0825 110.258C43.6077 110.239 44.1159 110.068 44.5458 109.766Z" fill="black"/>
<path opacity="0.1" d="M43.0825 110.261C42.9947 110.263 42.9071 110.252 42.8225 110.228C42.8566 110.261 42.9002 110.281 42.947 110.287C42.9938 110.293 43.0413 110.284 43.0825 110.261Z" fill="black"/>
</g>
<path d="M51.5389 46.5502C53.4859 46.7709 55.3392 47.6083 57.256 48.0618C57.735 48.212 58.2453 48.2319 58.7344 48.1193C59.4782 47.8895 60.0828 47.1095 60.8508 47.1337C61.3254 47.1337 61.7578 47.4723 62.1387 47.7837C62.7698 48.2625 63.3631 48.7891 63.9134 49.3589C65.2346 50.7949 66.057 52.7299 67.2633 54.2899C68.4696 55.85 70.3713 57.0653 72.0855 56.3488C70.9215 60.8838 67.1 64.3516 62.9701 64.6328C61.3224 64.7446 59.6445 64.403 58.0391 64.8867C57.6412 65.0489 57.2214 65.1508 56.7935 65.1891C55.8864 65.1891 55.1367 64.3456 54.5622 63.5262C53.2199 61.5973 52.1436 59.4084 50.6319 57.6519C50.133 57.0714 49.5435 56.5181 48.839 56.4123C48.1346 56.3065 47.4846 56.6421 46.8557 56.9686C45.8187 57.5068 44.7575 58.063 43.9533 58.9821C43.1491 59.9012 42.6412 61.2769 42.9738 62.5225C43.1521 63.1937 43.5633 63.7983 43.5784 64.5028C43.5784 65.6214 42.6049 66.4407 42.4084 67.5261C42.3651 67.9843 42.3489 68.4447 42.36 68.9048C42.2723 70.3983 41.2988 71.6258 40.2769 72.56C39.8809 72.9258 39.4395 73.3158 39.3246 73.8812C39.246 74.2651 39.3246 74.6733 39.2732 75.0633C39.125 76.0338 38.1576 76.5236 37.302 76.6505C36.3027 76.797 35.2824 76.676 34.3451 76.2998C35.5545 75.7345 36.2771 74.123 35.9989 72.6718C35.618 70.6734 33.6105 69.2403 33.7798 67.2026C33.8745 66.5786 34.062 65.9723 34.3361 65.4037C34.7742 64.3044 35.0925 63.161 35.2854 61.9934C35.4832 61.0948 35.4635 60.1619 35.228 59.2724C34.971 58.4893 34.4479 57.8665 34.0005 57.2044C33.3945 56.3043 32.9163 55.3245 32.5795 54.2929C32.4575 53.9881 32.4108 53.6583 32.4435 53.3315C32.541 52.9461 32.7515 52.5986 33.0481 52.3338C34.1486 51.1819 35.3277 49.9817 36.791 49.6491C37.4902 49.5326 38.2013 49.5052 38.9074 49.5675C40.1401 49.6067 41.374 49.5541 42.5989 49.4103C43.6087 49.2923 45.3199 49.3075 46.1725 48.6484C46.9676 48.0437 47.4181 47.2728 48.4007 46.8858C49.4035 46.5186 50.4811 46.4034 51.5389 46.5502Z" fill="#A66477"/>
<path d="M251.995 30.7926C251.995 30.7533 251.995 30.7171 251.995 30.6808C251.995 30.6445 251.995 30.6022 251.977 30.5659H251.929C251.929 30.4843 251.929 30.4026 251.929 30.315C251.808 27.5123 247.932 21.5473 246.378 23.2887C245.018 24.8185 247.07 28.6884 248.116 30.4298L248.21 30.5871L248.159 30.5538C248.159 30.5538 243.832 43.4574 243.321 43.9593C242.81 44.4612 239.249 54.6075 234.554 55.7503C233.626 55.971 232.855 56.1706 232.208 56.355L232.259 56.1826C232.561 55.194 232.933 54.2598 233.084 53.1593C233.236 52.0588 233.084 50.7255 232.528 50.1904C232.256 49.9243 231.923 49.8881 231.7 49.4648C231.554 49.0936 231.477 48.6994 231.47 48.3008L231.071 43.409L231.349 43.3244C233.03 42.7862 234.66 41.5104 234.85 39.7931C234.792 39.8153 234.732 39.8345 234.672 39.8506C234.694 39.7507 234.711 39.6498 234.723 39.5482C233.311 40.1045 232.002 38.6412 230.642 37.9852C228.401 36.8877 225.841 37.9217 223.528 38.1726C220.906 38.4598 218.418 37.3714 215.74 37.5679C214.282 37.6798 212.662 38.6684 212.74 40.1045C212.786 40.8936 213.345 41.5618 213.575 42.3176C214.155 44.1467 212.864 45.9819 211.734 47.5419C210.99 48.5669 210.276 49.8155 210.149 51.0188C207.546 48.2978 204.732 45.1535 204.405 43.9714L196.874 31.0678C196.874 31.0678 196.696 31.2582 196.408 31.5394C196.363 31.4003 196.309 31.2371 196.248 31.0738C195.287 28.38 192.566 21.8526 189.116 23.0499C185.666 24.2471 190.546 30.9378 192.668 33.6043L192.971 33.9732C192.793 34.0169 192.606 34.0085 192.433 33.949L200.831 48.3552C200.831 48.3552 202.358 51.1125 203.758 51.8623C203.758 51.8623 214.192 65.0168 214.319 67.6472C214.446 70.2775 219.011 77.2946 219.011 77.2946C219.011 77.2946 220.538 88.6956 217.865 90.7001H217.898H217.919H217.953H217.983H218.043H218.083H218.122H218.173H218.216H218.276H218.306C218.179 90.8241 218.049 90.9601 217.916 91.1083C215.936 93.3032 213.406 98.0075 216.864 106.007C221.952 117.798 222.717 122.418 222.717 122.418C222.717 122.418 213.043 122.92 211.138 123.295C209.451 123.627 202.893 123.86 201.394 123.899C200.859 123.277 199.277 121.898 197.143 123.899C194.47 126.406 192.563 134.783 192.563 134.783C192.563 134.783 191.544 141.55 194.981 139.793C194.981 139.793 199.054 134.155 200.197 133.904C200.765 133.78 201.367 132.942 201.826 132.135L201.85 132.15C201.878 132.15 201.989 132.09 202.171 132.017C203.017 131.681 205.348 130.874 207.187 131.276C208.193 131.497 212.511 131.548 217.037 131.536C216.015 133.985 214.183 140.304 214.183 140.304C214.183 140.304 213.418 146.197 215.957 145.955C217.771 145.776 220.553 141.142 222.004 138.496C223.056 137.725 226.07 134.962 228.298 135.17L243.312 129.408C243.312 129.408 246.874 127.403 244.966 120.764C243.454 115.485 239.152 104.68 237.453 100.469L237.402 100.36C236.991 99.3408 236.743 98.7362 236.743 98.7362C236.045 96.8135 235.587 94.812 235.379 92.7772C235.364 92.6169 235.352 92.4537 235.34 92.2934C235.55 92.2052 235.748 92.0903 235.929 91.9518C235.929 91.9518 234.53 77.7965 235.929 76.2909L235.954 76.2637V76.2455L235.978 76.2153L236.032 76.1458L236.099 76.0611C236.174 75.9613 236.265 75.8374 236.368 75.6862C237.169 74.5132 238.662 71.8345 238.233 68.6721C238.215 68.535 238.193 68.3969 238.167 68.2579C238.002 67.4002 237.709 66.5725 237.296 65.8029C237.235 65.4825 237.198 65.1582 237.184 64.8324C237.184 64.648 237.184 64.4454 237.184 64.2278V64.1915C237.184 64.133 237.184 64.0746 237.184 64.0161V63.9738C237.184 63.8317 237.208 63.6715 237.229 63.5384V63.484C237.229 63.4296 237.238 63.3742 237.257 63.3177V63.2482C237.257 63.1938 237.281 63.1394 237.293 63.0849V63.0275C237.311 62.9549 237.329 62.8824 237.353 62.8098V62.7735C237.372 62.7131 237.392 62.6536 237.414 62.5952L237.441 62.5256L237.502 62.3805L237.532 62.3079C237.556 62.2535 237.583 62.1991 237.61 62.1447L237.632 62.0993C237.668 62.0328 237.706 61.9673 237.746 61.9028L237.78 61.8514L237.879 61.7093L237.928 61.6458L238.034 61.5188L238.082 61.4644C238.136 61.407 238.191 61.3495 238.251 61.2951C239.905 59.7834 247.285 48.6424 247.285 48.6424C247.285 48.6424 249.066 46.1361 249.066 44.5095C249.166 44.4732 252.313 33.9823 251.995 30.7926ZM232.183 124.441C232.002 122.723 231.821 120.595 231.654 118.394L234.533 122.881C234.533 122.881 234.261 124.247 232.183 124.441Z" fill="url(#paint3_linear)"/>
<path d="M202.174 123.491C202.174 123.491 200.45 120.77 197.862 123.246C195.274 125.723 193.43 133.958 193.43 133.958C193.43 133.958 192.445 140.61 195.77 138.883C195.77 138.883 199.701 133.341 200.819 133.097C201.938 132.852 203.159 129.771 203.159 129.771L202.174 123.491Z" fill="#493545"/>
<path d="M220.643 130.14C220.643 130.14 218.303 129.03 217.566 129.895C216.828 130.759 214.364 139.376 214.364 139.376C214.364 139.376 213.626 145.042 216.087 144.794C218.548 144.546 222.859 135.675 222.859 135.675L220.643 130.14Z" fill="#493545"/>
<path opacity="0.05" d="M220.643 130.14C220.643 130.14 218.303 129.03 217.566 129.895C216.828 130.759 214.364 139.376 214.364 139.376C214.364 139.376 213.626 145.042 216.087 144.794C218.548 144.546 222.859 135.675 222.859 135.675L220.643 130.14Z" fill="black"/>
<path d="M228.77 113.393L234.064 121.644C234.064 121.644 233.695 123.491 230.493 123.123L219.534 130.019C219.534 130.019 218.582 138.415 221.626 137.653C222.119 137.529 225.556 133.958 228.029 134.206L242.563 128.54C242.563 128.54 246.009 126.569 244.162 120.045C242.315 113.52 236.208 98.3916 236.208 98.3916L226.554 103.791L228.77 113.393Z" fill="#3E3D77"/>
<path opacity="0.05" d="M228.77 113.393L234.064 121.644C234.064 121.644 233.695 123.491 230.493 123.123L219.534 130.019C219.534 130.019 218.582 138.415 221.626 137.653C222.119 137.529 225.556 133.958 228.029 134.206L242.563 128.54C242.563 128.54 246.009 126.569 244.162 120.045C242.315 113.52 236.208 98.3916 236.208 98.3916L226.554 103.791L228.77 113.393Z" fill="black"/>
<path d="M232.096 125.583C232.833 130.263 228.649 130.632 228.649 130.632C228.649 130.632 209.808 131.001 207.592 130.508C205.375 130.016 202.419 131.37 202.419 131.37C198.6 129.03 201.681 123.243 201.681 123.243C201.681 123.243 209.563 122.998 211.41 122.639C213.257 122.279 222.614 121.768 222.614 121.768C222.614 121.768 221.877 117.212 216.949 105.638C213.602 97.7776 216.042 93.1519 217.968 90.9963C218.459 90.4243 219.028 89.9236 219.658 89.5088L234.805 90.2465C234.788 91.0104 234.817 91.7746 234.889 92.5352C235.148 95.1464 235.827 97.6987 236.9 100.094C236.038 100.094 230.496 105.266 230.496 105.266C230.496 105.266 231.355 120.906 232.096 125.583Z" fill="#3E3D77"/>
<path opacity="0.1" d="M202.788 123.736C202.788 123.736 210.669 123.491 212.517 123.132C214.364 122.772 223.721 122.27 223.721 122.27C223.721 122.27 222.983 117.714 218.055 106.14C214.709 98.2797 217.148 93.654 219.074 91.4984C219.566 90.9264 220.135 90.4257 220.764 90.0109L234.799 90.6942C234.799 90.549 234.799 90.3918 234.799 90.2558L219.652 89.5181C219.022 89.9329 218.453 90.4335 217.962 91.0056C216.045 93.1642 213.596 97.7869 216.943 105.648C221.883 117.212 222.615 121.768 222.615 121.768C222.615 121.768 213.242 122.261 211.41 122.63C209.578 122.999 201.681 123.234 201.681 123.234C201.681 123.234 198.603 129.024 202.419 131.373C202.419 131.373 202.534 131.319 202.721 131.24C200.184 128.631 202.788 123.736 202.788 123.736Z" fill="black"/>
<path d="M225.32 44.313H217.687V63.6442H225.32V44.313Z" fill="#493545"/>
<path opacity="0.1" d="M225.32 44.313H217.687V63.6442H225.32V44.313Z" fill="black"/>
<path d="M229.686 41.4772C229.949 41.5498 230.246 41.5588 230.424 41.9216C230.535 42.2116 230.595 42.5184 230.602 42.8286L231.083 48.8028C231.09 49.1939 231.166 49.5808 231.307 49.9456C231.509 50.3507 231.845 50.3991 232.108 50.6591C232.637 51.1852 232.791 52.5033 232.646 53.5766C232.501 54.6499 232.135 55.569 231.848 56.5395C231.437 57.9302 231.165 59.4933 230.587 60.6664C230.01 61.8394 228.961 62.4804 228.283 61.4948C227.606 60.5092 227.697 58.5198 227.57 56.8902C227.358 54.1692 226.297 51.8231 226.224 49.0839C226.164 46.8678 226.76 44.7999 227.131 42.6986C227.398 41.2565 227.413 39.506 227.8 38.209C228.123 39.7509 228.74 41.2172 229.686 41.4772Z" fill="#493545"/>
<path opacity="0.1" d="M229.686 41.4772C229.949 41.5498 230.246 41.5588 230.424 41.9216C230.535 42.2116 230.595 42.5184 230.602 42.8286L231.083 48.8028C231.09 49.1939 231.166 49.5808 231.307 49.9456C231.509 50.3507 231.845 50.3991 232.108 50.6591C232.637 51.1852 232.791 52.5033 232.646 53.5766C232.501 54.6499 232.135 55.569 231.848 56.5395C231.437 57.9302 231.165 59.4933 230.587 60.6664C230.01 61.8394 228.961 62.4804 228.283 61.4948C227.606 60.5092 227.697 58.5198 227.57 56.8902C227.358 54.1692 226.297 51.8231 226.224 49.0839C226.164 46.8678 226.76 44.7999 227.131 42.6986C227.398 41.2565 227.413 39.506 227.8 38.209C228.123 39.7509 228.74 41.2172 229.686 41.4772Z" fill="black"/>
<path d="M197.37 32.9848L194.416 35.4488C194.416 35.4488 194.065 35.0377 193.542 34.3725C191.489 31.7513 186.77 25.1755 190.105 23.9994C193.439 22.8234 196.076 29.2359 197.007 31.8843C197.243 32.5555 197.37 32.9848 197.37 32.9848Z" fill="#C77485"/>
<path d="M250.689 32.1227C249.459 33.97 247.736 32.1227 247.736 32.1227C247.736 32.1227 247.515 31.7931 247.203 31.261C246.191 29.5468 244.204 25.7465 245.519 24.2408C247.031 22.5206 250.777 28.3919 250.892 31.1461C250.927 31.4848 250.857 31.8261 250.689 32.1227Z" fill="#C77485"/>
<path d="M220.396 52.071C220.396 52.071 222.86 59.9528 222.119 62.2899C221.378 64.6269 227.416 67.3479 227.416 67.3479H234.312C234.312 67.3479 236.776 62.2989 236.159 60.8205C235.542 59.3421 230.249 58.2356 230.249 58.2356C230.249 58.2356 227.171 58.2356 227.295 49.9849L220.396 52.071Z" fill="#C77485"/>
<path opacity="0.1" d="M197.37 32.9848L194.416 35.4488C194.416 35.4488 194.065 35.0376 193.542 34.3725C194.616 34.182 196.281 32.6159 197.01 31.8843C197.243 32.5555 197.37 32.9848 197.37 32.9848Z" fill="black"/>
<path opacity="0.1" d="M250.689 32.1228C249.459 33.9701 247.735 32.1228 247.735 32.1228C247.735 32.1228 247.515 31.7933 247.203 31.2612L247.243 31.1372C248.041 31.7086 250.523 31.2219 250.892 31.1372C250.929 31.4789 250.859 31.8237 250.689 32.1228Z" fill="black"/>
<path opacity="0.1" d="M234.883 92.5323C231.074 94.2708 218.696 91.1748 217.953 90.9904C218.444 90.4184 219.013 89.9178 219.643 89.5029L234.79 90.2406C234.776 91.0057 234.808 91.7709 234.883 92.5323Z" fill="black"/>
<path d="M221.998 58.8434C221.998 58.8434 219.044 59.8291 214.857 56.0106C214.857 56.0106 205.484 46.7743 204.88 44.5582L197.624 31.8601C197.624 31.8601 194.546 35.1858 193.312 34.693L201.439 48.8543C201.439 48.8543 202.918 51.5753 204.272 52.3009C204.272 52.3009 214.37 65.2318 214.491 67.8167C214.612 70.4017 219.041 77.3251 219.041 77.3251C219.041 77.3251 220.52 88.5296 217.932 90.5008C217.932 90.5008 232.338 94.1954 235.416 91.7313C235.416 91.7313 234.061 77.824 235.416 76.3395C235.416 76.3395 239.603 71.4145 236.77 65.9967C236.77 65.9967 236.165 63.0429 237.756 61.5644C239.346 60.086 246.499 49.1264 246.499 49.1264C246.499 49.1264 248.222 46.6624 248.222 45.0631C248.222 45.0631 251.424 34.2274 250.943 31.3945C250.943 31.3945 248.111 31.9992 247.249 31.3945C247.249 31.3945 243.062 44.0926 242.569 44.5703C242.076 45.0479 238.638 55.0371 234.073 56.1466C229.508 57.2562 228.779 57.746 228.779 57.746C228.779 57.746 237.644 63.2877 233.335 65.7487C229.027 68.2097 221.998 58.8434 221.998 58.8434Z" fill="#EBD021"/>
<path opacity="0.1" d="M227.594 53.9667C227.448 52.8068 227.388 51.6376 227.416 50.4688L220.52 52.5609C220.701 53.0203 220.846 53.4934 220.952 53.9758C221.741 54.3235 222.805 55.1459 223.721 55.1459C225.107 55.1912 226.469 54.7766 227.594 53.9667Z" fill="black"/>
<path d="M223.597 54.78C227.134 54.78 230.001 51.9131 230.001 48.3766C230.001 44.8401 227.134 41.9731 223.597 41.9731C220.061 41.9731 217.194 44.8401 217.194 48.3766C217.194 51.9131 220.061 54.78 223.597 54.78Z" fill="#C77485"/>
<path opacity="0.1" d="M215.978 38.5114C214.57 38.6202 212.997 39.5937 213.076 41.0056C213.118 41.7826 213.65 42.4387 213.883 43.1824C214.443 44.9813 213.197 46.7862 212.103 48.3221C211.008 49.858 209.986 51.8927 210.923 53.5192C211.191 53.9108 211.479 54.2873 211.788 54.6469C212.946 56.21 212.931 58.3203 213.445 60.1978C214.101 62.5997 215.653 64.659 217.781 65.9523C219.908 67.2457 222.451 67.6748 224.885 67.1515C223.969 65.9817 223.512 64.5171 223.6 63.0337C223.67 61.9574 224.017 60.8327 223.6 59.838C223.062 58.5591 221.484 58.0542 220.671 56.9356C219.857 55.817 219.912 54.266 220.305 52.9327C220.698 51.5994 221.378 50.3629 221.705 49.0024C221.785 48.6054 221.886 48.2129 222.007 47.8263C222.575 46.2118 224.274 45.2746 225.937 44.8725C227.6 44.4704 229.348 44.4462 230.971 43.9171C232.595 43.388 234.173 42.1484 234.36 40.4463C232.994 40.9935 231.727 39.5665 230.409 38.9104C228.238 37.8341 225.762 38.847 223.525 39.0949C220.976 39.3791 218.557 38.3239 215.978 38.5114Z" fill="black"/>
<path d="M215.854 38.2662C214.446 38.3751 212.873 39.3486 212.952 40.7605C212.994 41.5375 213.526 42.1936 213.759 42.9373C214.319 44.7362 213.073 46.5411 211.978 48.077C210.884 49.6128 209.862 51.6476 210.799 53.2741C211.067 53.6657 211.355 54.0422 211.664 54.4018C212.822 55.9649 212.807 58.0752 213.321 59.9527C213.977 62.3546 215.529 64.4139 217.657 65.7072C219.784 67.0005 222.327 67.4296 224.761 66.9063C223.845 65.7365 223.388 64.272 223.476 62.7886C223.546 61.7123 223.893 60.5876 223.476 59.5929C222.938 58.314 221.36 57.8091 220.547 56.6905C219.733 55.5718 219.788 54.0209 220.181 52.6876C220.574 51.3543 221.254 50.1177 221.581 48.7572C221.661 48.3603 221.762 47.9677 221.883 47.5812C222.451 45.9667 224.15 45.0295 225.813 44.6274C227.476 44.2252 229.224 44.2011 230.847 43.672C232.471 43.1429 234.049 41.9033 234.236 40.2012C232.87 40.7484 231.603 39.3214 230.285 38.6653C228.114 37.589 225.638 38.6018 223.401 38.8497C220.858 39.1309 218.448 38.0637 215.854 38.2662Z" fill="#493545"/>
<path opacity="0.1" d="M229.94 62.6011C229.94 62.6011 232.504 64.8897 233.009 65.8995L229.94 62.6011Z" fill="black"/>
<path opacity="0.1" d="M235.488 76.2695C235.488 76.2695 232.286 76.2695 230.808 76.6384C229.329 77.0072 225.759 76.6384 225.759 76.6384" fill="black"/>
<g opacity="0.1">
<path opacity="0.1" d="M233.326 65.7396C233.05 65.8976 232.751 66.0118 232.44 66.0782C233.243 66.2563 234.084 66.1359 234.805 65.7396C239.116 63.2756 230.248 57.7368 230.248 57.7368H228.77C228.77 57.7368 237.637 63.2786 233.326 65.7396Z" fill="black"/>
<path opacity="0.1" d="M250.964 31.609C250.964 31.5304 250.946 31.4548 250.934 31.3853C250.428 31.4902 249.916 31.5679 249.401 31.6181C249.921 31.6752 250.446 31.6722 250.964 31.609Z" fill="black"/>
<path opacity="0.1" d="M219.413 90.4916C221.998 88.5203 220.522 77.3158 220.522 77.3158C220.522 77.3158 216.09 70.4196 215.966 67.8346C215.842 65.2497 205.747 52.3189 205.747 52.3189C204.393 51.5812 202.914 48.8723 202.914 48.8723C202.914 48.8723 194.54 35.2037 193.309 34.7109L201.436 48.8723C201.436 48.8723 202.914 51.5933 204.269 52.3189C204.269 52.3189 214.367 65.2497 214.488 67.8346C214.609 70.4196 219.041 77.3249 219.041 77.3249C219.041 77.3249 220.519 88.5294 217.931 90.5006C217.931 90.5006 226.787 92.7712 232.096 92.5656C226.775 92.3781 219.413 90.4916 219.413 90.4916Z" fill="black"/>
<path opacity="0.1" d="M222.07 58.9399L221.998 58.8462C221.913 58.8711 221.828 58.8903 221.741 58.9036C221.856 58.9188 221.964 58.9308 222.07 58.9399Z" fill="black"/>
</g>
<g opacity="0.1">
<path opacity="0.1" d="M250.934 31.3701L250.859 31.3852C250.729 35.1674 248.105 44.053 248.105 44.053C248.105 45.6524 246.381 48.1164 246.381 48.1164C246.381 48.1164 239.24 59.076 237.638 60.5544C236.035 62.0328 236.652 64.9866 236.652 64.9866L236.667 65.0169C236.619 64.0222 236.74 62.4803 237.759 61.537C239.358 60.0586 246.502 49.099 246.502 49.099C246.502 49.099 248.225 46.635 248.225 45.0356C248.225 45.0538 251.427 34.2181 250.934 31.3701Z" fill="black"/>
<path opacity="0.1" d="M235.298 75.3445C235.482 76.3906 235.358 75.284 235.422 76.3301C235.422 76.3301 238.445 72.7837 237.619 68.3999C237.867 72.3181 235.298 75.3445 235.298 75.3445Z" fill="black"/>
</g>
<path d="M202.533 4.62875H200.635C200.815 4.63733 200.994 4.60932 201.163 4.54642C201.332 4.48351 201.486 4.38703 201.616 4.26279C201.746 4.13856 201.85 3.98918 201.921 3.82368C201.992 3.65819 202.028 3.48003 202.028 3.29999C202.028 3.11996 201.992 2.94181 201.921 2.77631C201.85 2.61082 201.746 2.46143 201.616 2.3372C201.486 2.21297 201.332 2.11648 201.163 2.05357C200.994 1.99067 200.815 1.96266 200.635 1.97124H185.24C184.898 1.98753 184.576 2.13464 184.341 2.38204C184.105 2.62945 183.973 2.95816 183.973 3.29999C183.973 3.64183 184.105 3.97054 184.341 4.21795C184.576 4.46535 184.898 4.61246 185.24 4.62875H187.139C186.797 4.64505 186.475 4.79215 186.239 5.03956C186.003 5.28696 185.872 5.61568 185.872 5.95751C185.872 6.29935 186.003 6.62806 186.239 6.87546C186.475 7.12287 186.797 7.26998 187.139 7.28627H184.481C184.301 7.27769 184.122 7.3057 183.953 7.36861C183.784 7.43151 183.63 7.528 183.5 7.65223C183.369 7.77646 183.266 7.92585 183.195 8.09134C183.124 8.25683 183.087 8.435 183.087 8.61503C183.087 8.79506 183.124 8.97321 183.195 9.13871C183.266 9.3042 183.369 9.45359 183.5 9.57782C183.63 9.70205 183.784 9.79854 183.953 9.86145C184.122 9.92435 184.301 9.95237 184.481 9.94379H199.864C200.044 9.95237 200.223 9.92435 200.392 9.86145C200.561 9.79854 200.715 9.70205 200.845 9.57782C200.976 9.45359 201.079 9.3042 201.15 9.13871C201.221 8.97321 201.258 8.79506 201.258 8.61503C201.258 8.435 201.221 8.25683 201.15 8.09134C201.079 7.92585 200.976 7.77646 200.845 7.65223C200.715 7.528 200.561 7.43151 200.392 7.36861C200.223 7.3057 200.044 7.27769 199.864 7.28627H202.533C202.875 7.26998 203.197 7.12287 203.433 6.87546C203.669 6.62806 203.8 6.29935 203.8 5.95751C203.8 5.61568 203.669 5.28696 203.433 5.03956C203.197 4.79215 202.875 4.64505 202.533 4.62875Z" fill="#F2F2F2"/>
<path d="M113.581 12.3806H112.136C112.273 12.3881 112.411 12.3675 112.54 12.3201C112.669 12.2727 112.787 12.1994 112.887 12.1047C112.987 12.0101 113.067 11.8961 113.121 11.7696C113.176 11.6431 113.204 11.5069 113.204 11.3693C113.204 11.2316 113.176 11.0954 113.121 10.9689C113.067 10.8425 112.987 10.7284 112.887 10.6338C112.787 10.5391 112.669 10.4659 112.54 10.4184C112.411 10.371 112.273 10.3504 112.136 10.358H100.429C100.171 10.3721 99.9272 10.4848 99.7491 10.6729C99.571 10.861 99.4718 11.1102 99.4718 11.3693C99.4718 11.6283 99.571 11.8775 99.7491 12.0656C99.9272 12.2537 100.171 12.3664 100.429 12.3806H101.874C101.737 12.3731 101.599 12.3936 101.47 12.4411C101.341 12.4885 101.223 12.5618 101.123 12.6564C101.023 12.7511 100.943 12.8651 100.889 12.9915C100.834 13.118 100.806 13.2542 100.806 13.3919C100.806 13.5295 100.834 13.6658 100.889 13.7922C100.943 13.9187 101.023 14.0327 101.123 14.1273C101.223 14.222 101.341 14.2953 101.47 14.3427C101.599 14.3901 101.737 14.4107 101.874 14.4032H99.8518C99.7144 14.3957 99.5768 14.4163 99.4476 14.4637C99.3183 14.5111 99.2001 14.5844 99.1002 14.679C99.0002 14.7737 98.9206 14.8877 98.8662 15.0142C98.8118 15.1406 98.7837 15.2768 98.7837 15.4145C98.7837 15.5522 98.8118 15.6884 98.8662 15.8148C98.9206 15.9413 99.0002 16.0553 99.1002 16.15C99.2001 16.2446 99.3183 16.3179 99.4476 16.3653C99.5768 16.4127 99.7144 16.4333 99.8518 16.4258H111.558C111.696 16.4333 111.833 16.4127 111.962 16.3653C112.092 16.3179 112.21 16.2446 112.31 16.15C112.41 16.0553 112.489 15.9413 112.544 15.8148C112.598 15.6884 112.626 15.5522 112.626 15.4145C112.626 15.2768 112.598 15.1406 112.544 15.0142C112.489 14.8877 112.41 14.7737 112.31 14.679C112.21 14.5844 112.092 14.5111 111.962 14.4637C111.833 14.4163 111.696 14.3957 111.558 14.4032H113.581C113.839 14.389 114.083 14.2763 114.261 14.0882C114.439 13.9001 114.538 13.6509 114.538 13.3919C114.538 13.1328 114.439 12.8836 114.261 12.6955C114.083 12.5074 113.839 12.3947 113.581 12.3806Z" fill="#F2F2F2"/>
<path d="M73.3071 28.659H71.4085C71.5883 28.6676 71.768 28.6396 71.9367 28.5767C72.1054 28.5138 72.2595 28.4173 72.3898 28.2931C72.5201 28.1688 72.6239 28.0194 72.6947 27.854C72.7656 27.6885 72.8022 27.5103 72.8022 27.3303C72.8022 27.1502 72.7656 26.9721 72.6947 26.8066C72.6239 26.6411 72.5201 26.4917 72.3898 26.3675C72.2595 26.2432 72.1054 26.1468 71.9367 26.0838C71.768 26.0209 71.5883 25.9929 71.4085 26.0015H56.0257C55.6843 26.0178 55.3622 26.1649 55.1263 26.4123C54.8905 26.6597 54.7589 26.9884 54.7589 27.3303C54.7589 27.6721 54.8905 28.0008 55.1263 28.2482C55.3622 28.4956 55.6843 28.6427 56.0257 28.659H57.9244C57.5829 28.6753 57.2609 28.8224 57.025 29.0698C56.7891 29.3172 56.6575 29.646 56.6575 29.9878C56.6575 30.3296 56.7891 30.6583 57.025 30.9057C57.2609 31.1531 57.5829 31.3003 57.9244 31.3165H55.2669C54.9254 31.3328 54.6034 31.4799 54.3675 31.7273C54.1316 31.9748 54 32.3035 54 32.6453C54 32.9871 54.1316 33.3159 54.3675 33.5633C54.6034 33.8107 54.9254 33.9578 55.2669 33.9741H70.6496C70.8294 33.9826 71.0091 33.9546 71.1778 33.8917C71.3465 33.8288 71.5007 33.7323 71.631 33.6081C71.7613 33.4839 71.865 33.3345 71.9359 33.169C72.0068 33.0035 72.0433 32.8253 72.0433 32.6453C72.0433 32.4653 72.0068 32.2871 71.9359 32.1216C71.865 31.9561 71.7613 31.8067 71.631 31.6825C71.5007 31.5583 71.3465 31.4618 71.1778 31.3989C71.0091 31.336 70.8294 31.308 70.6496 31.3165H73.3071C73.6486 31.3003 73.9707 31.1531 74.2065 30.9057C74.4424 30.6583 74.574 30.3296 74.574 29.9878C74.574 29.646 74.4424 29.3172 74.2065 29.0698C73.9707 28.8224 73.6486 28.6753 73.3071 28.659Z" fill="#F2F2F2"/>
</g>
<defs>
<linearGradient id="paint0_linear" x1="139.225" y1="164.397" x2="139.225" y2="39.2311" gradientUnits="userSpaceOnUse">
<stop stop-color="#808080" stop-opacity="0.25"/>
<stop offset="0.54" stop-color="#808080" stop-opacity="0.12"/>
<stop offset="1" stop-color="#808080" stop-opacity="0.1"/>
</linearGradient>
<linearGradient id="paint1_linear" x1="115.756" y1="143.11" x2="115.756" y2="143.096" gradientUnits="userSpaceOnUse">
<stop stop-color="#808080" stop-opacity="0.25"/>
<stop offset="0.54" stop-color="#808080" stop-opacity="0.12"/>
<stop offset="1" stop-color="#808080" stop-opacity="0.1"/>
</linearGradient>
<linearGradient id="paint2_linear" x1="19469" y1="61131.6" x2="19469" y2="27408.2" gradientUnits="userSpaceOnUse">
<stop stop-color="#808080" stop-opacity="0.25"/>
<stop offset="0.54" stop-color="#808080" stop-opacity="0.12"/>
<stop offset="1" stop-color="#808080" stop-opacity="0.1"/>
</linearGradient>
<linearGradient id="paint3_linear" x1="54844" y1="74103.3" x2="54844" y2="24019" gradientUnits="userSpaceOnUse">
<stop stop-color="#808080" stop-opacity="0.25"/>
<stop offset="0.54" stop-color="#808080" stop-opacity="0.12"/>
<stop offset="1" stop-color="#808080" stop-opacity="0.1"/>
</linearGradient>
<clipPath id="clip0">
<rect width="287.157" height="200" fill="white"/>
</clipPath>
</defs>
</svg>
